<mxfile host="65bd71144e">
    <diagram id="R9nvyWBUeLnLvYc_CQ9X" name="Page-1">
        <mxGraphModel dx="2702" dy="777" grid="1" gridSize="10" guides="1" tooltips="1" connect="1" arrows="1" fold="1" page="1" pageScale="1" pageWidth="827" pageHeight="1169" math="0" shadow="0">
            <root>
                <mxCell id="0"/>
                <mxCell id="1" parent="0"/>
                <mxCell id="s-61QhmTAsR13LVHyT8Y-1" value="User" style="swimlane;fontStyle=0;childLayout=stackLayout;horizontal=1;startSize=26;fillColor=none;horizontalStack=0;resizeParent=1;resizeParentMax=0;resizeLast=0;collapsible=1;marginBottom=0;" parent="1" vertex="1">
                    <mxGeometry x="-170" y="142" width="140" height="130" as="geometry"/>
                </mxCell>
                <mxCell id="s-61QhmTAsR13LVHyT8Y-3" value="email" style="text;strokeColor=none;fillColor=none;align=left;verticalAlign=top;spacingLeft=4;spacingRight=4;overflow=hidden;rotatable=0;points=[[0,0.5],[1,0.5]];portConstraint=eastwest;" parent="s-61QhmTAsR13LVHyT8Y-1" vertex="1">
                    <mxGeometry y="26" width="140" height="26" as="geometry"/>
                </mxCell>
                <mxCell id="s-61QhmTAsR13LVHyT8Y-5" value="firstName" style="text;strokeColor=none;fillColor=none;align=left;verticalAlign=top;spacingLeft=4;spacingRight=4;overflow=hidden;rotatable=0;points=[[0,0.5],[1,0.5]];portConstraint=eastwest;" parent="s-61QhmTAsR13LVHyT8Y-1" vertex="1">
                    <mxGeometry y="52" width="140" height="26" as="geometry"/>
                </mxCell>
                <mxCell id="s-61QhmTAsR13LVHyT8Y-4" value="lastName" style="text;strokeColor=none;fillColor=none;align=left;verticalAlign=top;spacingLeft=4;spacingRight=4;overflow=hidden;rotatable=0;points=[[0,0.5],[1,0.5]];portConstraint=eastwest;" parent="s-61QhmTAsR13LVHyT8Y-1" vertex="1">
                    <mxGeometry y="78" width="140" height="26" as="geometry"/>
                </mxCell>
                <mxCell id="2" value="password" style="text;strokeColor=none;fillColor=none;align=left;verticalAlign=top;spacingLeft=4;spacingRight=4;overflow=hidden;rotatable=0;points=[[0,0.5],[1,0.5]];portConstraint=eastwest;" parent="s-61QhmTAsR13LVHyT8Y-1" vertex="1">
                    <mxGeometry y="104" width="140" height="26" as="geometry"/>
                </mxCell>
                <mxCell id="s-61QhmTAsR13LVHyT8Y-6" value="Measurement" style="swimlane;fontStyle=0;childLayout=stackLayout;horizontal=1;startSize=26;fillColor=none;horizontalStack=0;resizeParent=1;resizeParentMax=0;resizeLast=0;collapsible=1;marginBottom=0;" parent="1" vertex="1">
                    <mxGeometry x="370" y="610" width="140" height="130" as="geometry"/>
                </mxCell>
                <mxCell id="s-61QhmTAsR13LVHyT8Y-9" value="unit" style="text;strokeColor=none;fillColor=none;align=left;verticalAlign=top;spacingLeft=4;spacingRight=4;overflow=hidden;rotatable=0;points=[[0,0.5],[1,0.5]];portConstraint=eastwest;" parent="s-61QhmTAsR13LVHyT8Y-6" vertex="1">
                    <mxGeometry y="26" width="140" height="26" as="geometry"/>
                </mxCell>
                <mxCell id="11" value="value" style="text;strokeColor=none;fillColor=none;align=left;verticalAlign=top;spacingLeft=4;spacingRight=4;overflow=hidden;rotatable=0;points=[[0,0.5],[1,0.5]];portConstraint=eastwest;" parent="s-61QhmTAsR13LVHyT8Y-6" vertex="1">
                    <mxGeometry y="52" width="140" height="26" as="geometry"/>
                </mxCell>
                <mxCell id="9" value="type" style="text;strokeColor=none;fillColor=none;align=left;verticalAlign=top;spacingLeft=4;spacingRight=4;overflow=hidden;rotatable=0;points=[[0,0.5],[1,0.5]];portConstraint=eastwest;" parent="s-61QhmTAsR13LVHyT8Y-6" vertex="1">
                    <mxGeometry y="78" width="140" height="26" as="geometry"/>
                </mxCell>
                <mxCell id="10" value="timestamp" style="text;strokeColor=none;fillColor=none;align=left;verticalAlign=top;spacingLeft=4;spacingRight=4;overflow=hidden;rotatable=0;points=[[0,0.5],[1,0.5]];portConstraint=eastwest;" parent="s-61QhmTAsR13LVHyT8Y-6" vertex="1">
                    <mxGeometry y="104" width="140" height="26" as="geometry"/>
                </mxCell>
                <mxCell id="s-61QhmTAsR13LVHyT8Y-10" value="Area" style="swimlane;fontStyle=0;childLayout=stackLayout;horizontal=1;startSize=26;fillColor=none;horizontalStack=0;resizeParent=1;resizeParentMax=0;resizeLast=0;collapsible=1;marginBottom=0;" parent="1" vertex="1">
                    <mxGeometry x="370" y="181" width="140" height="52" as="geometry"/>
                </mxCell>
                <mxCell id="s-61QhmTAsR13LVHyT8Y-13" value="name" style="text;strokeColor=none;fillColor=none;align=left;verticalAlign=top;spacingLeft=4;spacingRight=4;overflow=hidden;rotatable=0;points=[[0,0.5],[1,0.5]];portConstraint=eastwest;" parent="s-61QhmTAsR13LVHyT8Y-10" vertex="1">
                    <mxGeometry y="26" width="140" height="26" as="geometry"/>
                </mxCell>
                <mxCell id="s-61QhmTAsR13LVHyT8Y-14" value="Sensor" style="swimlane;fontStyle=0;childLayout=stackLayout;horizontal=1;startSize=26;fillColor=none;horizontalStack=0;resizeParent=1;resizeParentMax=0;resizeLast=0;collapsible=1;marginBottom=0;" parent="1" vertex="1">
                    <mxGeometry x="370" y="452" width="140" height="52" as="geometry"/>
                </mxCell>
                <mxCell id="s-61QhmTAsR13LVHyT8Y-15" value="name" style="text;strokeColor=none;fillColor=none;align=left;verticalAlign=top;spacingLeft=4;spacingRight=4;overflow=hidden;rotatable=0;points=[[0,0.5],[1,0.5]];portConstraint=eastwest;" parent="s-61QhmTAsR13LVHyT8Y-14" vertex="1">
                    <mxGeometry y="26" width="140" height="26" as="geometry"/>
                </mxCell>
                <mxCell id="s-61QhmTAsR13LVHyT8Y-16" value="House" style="swimlane;fontStyle=0;childLayout=stackLayout;horizontal=1;startSize=26;fillColor=none;horizontalStack=0;resizeParent=1;resizeParentMax=0;resizeLast=0;collapsible=1;marginBottom=0;" parent="1" vertex="1">
                    <mxGeometry x="110" y="181" width="140" height="52" as="geometry"/>
                </mxCell>
                <mxCell id="s-61QhmTAsR13LVHyT8Y-17" value="name" style="text;strokeColor=none;fillColor=none;align=left;verticalAlign=top;spacingLeft=4;spacingRight=4;overflow=hidden;rotatable=0;points=[[0,0.5],[1,0.5]];portConstraint=eastwest;" parent="s-61QhmTAsR13LVHyT8Y-16" vertex="1">
                    <mxGeometry y="26" width="140" height="26" as="geometry"/>
                </mxCell>
                <mxCell id="s-61QhmTAsR13LVHyT8Y-21" value="" style="endArrow=none;html=1;edgeStyle=orthogonalEdgeStyle;rounded=0;" parent="1" source="s-61QhmTAsR13LVHyT8Y-1" target="s-61QhmTAsR13LVHyT8Y-16" edge="1">
                    <mxGeometry relative="1" as="geometry">
                        <mxPoint x="50" y="230" as="sourcePoint"/>
                        <mxPoint x="210" y="230" as="targetPoint"/>
                    </mxGeometry>
                </mxCell>
                <mxCell id="s-61QhmTAsR13LVHyT8Y-22" value="0:n" style="edgeLabel;resizable=0;html=1;align=left;verticalAlign=bottom;" parent="s-61QhmTAsR13LVHyT8Y-21" connectable="0" vertex="1">
                    <mxGeometry x="-1" relative="1" as="geometry"/>
                </mxCell>
                <mxCell id="s-61QhmTAsR13LVHyT8Y-23" value="1:1" style="edgeLabel;resizable=0;html=1;align=right;verticalAlign=bottom;" parent="s-61QhmTAsR13LVHyT8Y-21" connectable="0" vertex="1">
                    <mxGeometry x="1" relative="1" as="geometry"/>
                </mxCell>
                <mxCell id="s-61QhmTAsR13LVHyT8Y-24" value="" style="endArrow=none;html=1;edgeStyle=orthogonalEdgeStyle;rounded=0;" parent="1" source="s-61QhmTAsR13LVHyT8Y-16" target="s-61QhmTAsR13LVHyT8Y-10" edge="1">
                    <mxGeometry relative="1" as="geometry">
                        <mxPoint x="480" y="220" as="sourcePoint"/>
                        <mxPoint x="640" y="220" as="targetPoint"/>
                    </mxGeometry>
                </mxCell>
                <mxCell id="s-61QhmTAsR13LVHyT8Y-25" value="0:n" style="edgeLabel;resizable=0;html=1;align=left;verticalAlign=bottom;" parent="s-61QhmTAsR13LVHyT8Y-24" connectable="0" vertex="1">
                    <mxGeometry x="-1" relative="1" as="geometry"/>
                </mxCell>
                <mxCell id="s-61QhmTAsR13LVHyT8Y-26" value="1:1" style="edgeLabel;resizable=0;html=1;align=right;verticalAlign=bottom;" parent="s-61QhmTAsR13LVHyT8Y-24" connectable="0" vertex="1">
                    <mxGeometry x="1" relative="1" as="geometry"/>
                </mxCell>
                <mxCell id="s-61QhmTAsR13LVHyT8Y-27" value="" style="endArrow=none;html=1;edgeStyle=orthogonalEdgeStyle;rounded=0;" parent="1" source="s-61QhmTAsR13LVHyT8Y-14" target="s-61QhmTAsR13LVHyT8Y-10" edge="1">
                    <mxGeometry relative="1" as="geometry">
                        <mxPoint x="500" y="410" as="sourcePoint"/>
                        <mxPoint x="660" y="410" as="targetPoint"/>
                    </mxGeometry>
                </mxCell>
                <mxCell id="s-61QhmTAsR13LVHyT8Y-28" value="1:1" style="edgeLabel;resizable=0;html=1;align=left;verticalAlign=bottom;" parent="s-61QhmTAsR13LVHyT8Y-27" connectable="0" vertex="1">
                    <mxGeometry x="-1" relative="1" as="geometry"/>
                </mxCell>
                <mxCell id="s-61QhmTAsR13LVHyT8Y-29" value="0:n" style="edgeLabel;resizable=0;html=1;align=right;verticalAlign=bottom;" parent="s-61QhmTAsR13LVHyT8Y-27" connectable="0" vertex="1">
                    <mxGeometry x="1" relative="1" as="geometry">
                        <mxPoint x="20" y="16" as="offset"/>
                    </mxGeometry>
                </mxCell>
                <mxCell id="s-61QhmTAsR13LVHyT8Y-30" value="" style="endArrow=none;html=1;edgeStyle=orthogonalEdgeStyle;rounded=0;" parent="1" source="s-61QhmTAsR13LVHyT8Y-6" target="s-61QhmTAsR13LVHyT8Y-14" edge="1">
                    <mxGeometry relative="1" as="geometry">
                        <mxPoint x="200" y="530" as="sourcePoint"/>
                        <mxPoint x="360" y="530" as="targetPoint"/>
                    </mxGeometry>
                </mxCell>
                <mxCell id="s-61QhmTAsR13LVHyT8Y-31" value="1:1" style="edgeLabel;resizable=0;html=1;align=left;verticalAlign=bottom;" parent="s-61QhmTAsR13LVHyT8Y-30" connectable="0" vertex="1">
                    <mxGeometry x="-1" relative="1" as="geometry"/>
                </mxCell>
                <mxCell id="s-61QhmTAsR13LVHyT8Y-32" value="0:n" style="edgeLabel;resizable=0;html=1;align=right;verticalAlign=bottom;" parent="s-61QhmTAsR13LVHyT8Y-30" connectable="0" vertex="1">
                    <mxGeometry x="1" relative="1" as="geometry">
                        <mxPoint x="20" y="16" as="offset"/>
                    </mxGeometry>
                </mxCell>
                <mxCell id="6" value="" style="endArrow=none;html=1;edgeStyle=orthogonalEdgeStyle;rounded=0;entryX=0.25;entryY=0;entryDx=0;entryDy=0;exitX=0.75;exitY=0;exitDx=0;exitDy=0;" parent="1" source="s-61QhmTAsR13LVHyT8Y-10" target="s-61QhmTAsR13LVHyT8Y-10" edge="1">
                    <mxGeometry relative="1" as="geometry">
                        <mxPoint x="700" y="270" as="sourcePoint"/>
                        <mxPoint x="730" y="230" as="targetPoint"/>
                        <Array as="points">
                            <mxPoint x="440" y="130"/>
                        </Array>
                    </mxGeometry>
                </mxCell>
                <mxCell id="7" value="1:1" style="edgeLabel;resizable=0;html=1;align=left;verticalAlign=bottom;" parent="6" connectable="0" vertex="1">
                    <mxGeometry x="-1" relative="1" as="geometry"/>
                </mxCell>
                <mxCell id="8" value="0:n" style="edgeLabel;resizable=0;html=1;align=right;verticalAlign=bottom;" parent="6" connectable="0" vertex="1">
                    <mxGeometry x="1" relative="1" as="geometry">
                        <mxPoint x="30" as="offset"/>
                    </mxGeometry>
                </mxCell>
                <mxCell id="16" value="Scenario" style="swimlane;fontStyle=0;childLayout=stackLayout;horizontal=1;startSize=26;fillColor=none;horizontalStack=0;resizeParent=1;resizeParentMax=0;resizeLast=0;collapsible=1;marginBottom=0;" parent="1" vertex="1">
                    <mxGeometry x="-195" y="426" width="190" height="104" as="geometry"/>
                </mxCell>
                <mxCell id="32" value="name" style="text;strokeColor=none;fillColor=none;align=left;verticalAlign=top;spacingLeft=4;spacingRight=4;overflow=hidden;rotatable=0;points=[[0,0.5],[1,0.5]];portConstraint=eastwest;" parent="16" vertex="1">
                    <mxGeometry y="26" width="190" height="26" as="geometry"/>
                </mxCell>
                <mxCell id="30" value="status (started, paused, stopped)" style="text;strokeColor=none;fillColor=none;align=left;verticalAlign=top;spacingLeft=4;spacingRight=4;overflow=hidden;rotatable=0;points=[[0,0.5],[1,0.5]];portConstraint=eastwest;" parent="16" vertex="1">
                    <mxGeometry y="52" width="190" height="26" as="geometry"/>
                </mxCell>
                <mxCell id="41" value="startedAt" style="text;strokeColor=none;fillColor=none;align=left;verticalAlign=top;spacingLeft=4;spacingRight=4;overflow=hidden;rotatable=0;points=[[0,0.5],[1,0.5]];portConstraint=eastwest;" parent="16" vertex="1">
                    <mxGeometry y="78" width="190" height="26" as="geometry"/>
                </mxCell>
                <mxCell id="21" value="Step" style="swimlane;fontStyle=0;childLayout=stackLayout;horizontal=1;startSize=26;fillColor=none;horizontalStack=0;resizeParent=1;resizeParentMax=0;resizeLast=0;collapsible=1;marginBottom=0;" parent="1" vertex="1">
                    <mxGeometry x="110" y="400" width="140" height="156" as="geometry"/>
                </mxCell>
                <mxCell id="33" value="executedAt" style="text;strokeColor=none;fillColor=none;align=left;verticalAlign=top;spacingLeft=4;spacingRight=4;overflow=hidden;rotatable=0;points=[[0,0.5],[1,0.5]];portConstraint=eastwest;" parent="21" vertex="1">
                    <mxGeometry y="26" width="140" height="26" as="geometry"/>
                </mxCell>
                <mxCell id="34" value="executionSecondDelay" style="text;strokeColor=none;fillColor=none;align=left;verticalAlign=top;spacingLeft=4;spacingRight=4;overflow=hidden;rotatable=0;points=[[0,0.5],[1,0.5]];portConstraint=eastwest;" parent="21" vertex="1">
                    <mxGeometry y="52" width="140" height="26" as="geometry"/>
                </mxCell>
                <mxCell id="35" value="unit" style="text;strokeColor=none;fillColor=none;align=left;verticalAlign=top;spacingLeft=4;spacingRight=4;overflow=hidden;rotatable=0;points=[[0,0.5],[1,0.5]];portConstraint=eastwest;" parent="21" vertex="1">
                    <mxGeometry y="78" width="140" height="26" as="geometry"/>
                </mxCell>
                <mxCell id="36" value="value" style="text;strokeColor=none;fillColor=none;align=left;verticalAlign=top;spacingLeft=4;spacingRight=4;overflow=hidden;rotatable=0;points=[[0,0.5],[1,0.5]];portConstraint=eastwest;" parent="21" vertex="1">
                    <mxGeometry y="104" width="140" height="26" as="geometry"/>
                </mxCell>
                <mxCell id="37" value="type" style="text;strokeColor=none;fillColor=none;align=left;verticalAlign=top;spacingLeft=4;spacingRight=4;overflow=hidden;rotatable=0;points=[[0,0.5],[1,0.5]];portConstraint=eastwest;" parent="21" vertex="1">
                    <mxGeometry y="130" width="140" height="26" as="geometry"/>
                </mxCell>
                <mxCell id="23" value="" style="endArrow=none;html=1;edgeStyle=orthogonalEdgeStyle;rounded=0;" parent="1" source="21" target="s-61QhmTAsR13LVHyT8Y-14" edge="1">
                    <mxGeometry relative="1" as="geometry">
                        <mxPoint x="-320" y="474" as="sourcePoint"/>
                        <mxPoint x="-80" y="430" as="targetPoint"/>
                    </mxGeometry>
                </mxCell>
                <mxCell id="24" value="1:1" style="edgeLabel;resizable=0;html=1;align=left;verticalAlign=bottom;" parent="23" connectable="0" vertex="1">
                    <mxGeometry x="-1" relative="1" as="geometry"/>
                </mxCell>
                <mxCell id="42" value="0:n" style="edgeLabel;html=1;align=center;verticalAlign=middle;resizable=0;points=[];" parent="23" vertex="1" connectable="0">
                    <mxGeometry x="0.9127" y="2" relative="1" as="geometry">
                        <mxPoint x="17" y="-13" as="offset"/>
                    </mxGeometry>
                </mxCell>
                <mxCell id="26" value="" style="endArrow=none;html=1;edgeStyle=orthogonalEdgeStyle;rounded=0;" parent="1" source="21" target="16" edge="1">
                    <mxGeometry relative="1" as="geometry">
                        <mxPoint x="-490" y="414" as="sourcePoint"/>
                        <mxPoint x="-250" y="370" as="targetPoint"/>
                    </mxGeometry>
                </mxCell>
                <mxCell id="27" value="1:1" style="edgeLabel;resizable=0;html=1;align=left;verticalAlign=bottom;" parent="26" connectable="0" vertex="1">
                    <mxGeometry x="-1" relative="1" as="geometry">
                        <mxPoint x="-20" as="offset"/>
                    </mxGeometry>
                </mxCell>
                <mxCell id="28" value="0:n" style="edgeLabel;resizable=0;html=1;align=right;verticalAlign=bottom;" parent="26" connectable="0" vertex="1">
                    <mxGeometry x="1" relative="1" as="geometry">
                        <mxPoint x="25" y="2" as="offset"/>
                    </mxGeometry>
                </mxCell>
                <mxCell id="38" value="" style="endArrow=none;html=1;edgeStyle=orthogonalEdgeStyle;rounded=0;" parent="1" source="16" target="s-61QhmTAsR13LVHyT8Y-1" edge="1">
                    <mxGeometry relative="1" as="geometry">
                        <mxPoint x="-205" y="580" as="sourcePoint"/>
                        <mxPoint x="-397.4999999999998" y="520" as="targetPoint"/>
                    </mxGeometry>
                </mxCell>
                <mxCell id="39" value="1:1" style="edgeLabel;resizable=0;html=1;align=left;verticalAlign=bottom;" parent="38" connectable="0" vertex="1">
                    <mxGeometry x="-1" relative="1" as="geometry"/>
                </mxCell>
                <mxCell id="40" value="0:n" style="edgeLabel;resizable=0;html=1;align=right;verticalAlign=bottom;" parent="38" connectable="0" vertex="1">
                    <mxGeometry x="1" relative="1" as="geometry">
                        <mxPoint y="18" as="offset"/>
                    </mxGeometry>
                </mxCell>
            </root>
        </mxGraphModel>
    </diagram>
</mxfile>